<mxfile host="app.diagrams.net" modified="2024-06-13T07:47:02.955Z" agent="Mozilla/5.0 (Windows NT 10.0; Win64; x64) AppleWebKit/537.36 (KHTML, like Gecko) Chrome/125.0.0.0 Safari/537.36" etag="Cq4gqhh3JD2-Ict0oKcu" version="24.5.4" type="device">
  <diagram name="Page-1" id="eHK5hdSqxZjHsjmZL91R">
    <mxGraphModel dx="1050" dy="564" grid="1" gridSize="10" guides="1" tooltips="1" connect="1" arrows="1" fold="1" page="1" pageScale="1" pageWidth="850" pageHeight="1100" math="0" shadow="0">
      <root>
        <mxCell id="0" />
        <mxCell id="1" parent="0" />
        <mxCell id="YjcfGOqxXFkQnm6U6_Sq-1" value="Room" style="swimlane;fontStyle=1;align=center;verticalAlign=top;childLayout=stackLayout;horizontal=1;startSize=26;horizontalStack=0;resizeParent=1;resizeParentMax=0;resizeLast=0;collapsible=1;marginBottom=0;whiteSpace=wrap;html=1;" parent="1" vertex="1">
          <mxGeometry x="640" y="380" width="180" height="406" as="geometry" />
        </mxCell>
        <mxCell id="YjcfGOqxXFkQnm6U6_Sq-2" value="- basePrice: double" style="text;strokeColor=none;fillColor=none;align=left;verticalAlign=top;spacingLeft=4;spacingRight=4;overflow=hidden;rotatable=0;points=[[0,0.5],[1,0.5]];portConstraint=eastwest;whiteSpace=wrap;html=1;" parent="YjcfGOqxXFkQnm6U6_Sq-1" vertex="1">
          <mxGeometry y="26" width="180" height="26" as="geometry" />
        </mxCell>
        <mxCell id="YjcfGOqxXFkQnm6U6_Sq-7" value="- number: int" style="text;strokeColor=none;fillColor=none;align=left;verticalAlign=top;spacingLeft=4;spacingRight=4;overflow=hidden;rotatable=0;points=[[0,0.5],[1,0.5]];portConstraint=eastwest;whiteSpace=wrap;html=1;" parent="YjcfGOqxXFkQnm6U6_Sq-1" vertex="1">
          <mxGeometry y="52" width="180" height="26" as="geometry" />
        </mxCell>
        <mxCell id="enaOvLACo1BJ830dcgLM-54" value="- availability : attribute" style="text;strokeColor=none;fillColor=none;align=left;verticalAlign=top;spacingLeft=4;spacingRight=4;overflow=hidden;rotatable=0;points=[[0,0.5],[1,0.5]];portConstraint=eastwest;whiteSpace=wrap;html=1;" parent="YjcfGOqxXFkQnm6U6_Sq-1" vertex="1">
          <mxGeometry y="78" width="180" height="26" as="geometry" />
        </mxCell>
        <mxCell id="YjcfGOqxXFkQnm6U6_Sq-3" value="" style="line;strokeWidth=1;fillColor=none;align=left;verticalAlign=middle;spacingTop=-1;spacingLeft=3;spacingRight=3;rotatable=0;labelPosition=right;points=[];portConstraint=eastwest;strokeColor=inherit;" parent="YjcfGOqxXFkQnm6U6_Sq-1" vertex="1">
          <mxGeometry y="104" width="180" height="8" as="geometry" />
        </mxCell>
        <mxCell id="YjcfGOqxXFkQnm6U6_Sq-4" value="+ Room(roomNumber : int)" style="text;strokeColor=none;fillColor=none;align=left;verticalAlign=top;spacingLeft=4;spacingRight=4;overflow=hidden;rotatable=0;points=[[0,0.5],[1,0.5]];portConstraint=eastwest;whiteSpace=wrap;html=1;" parent="YjcfGOqxXFkQnm6U6_Sq-1" vertex="1">
          <mxGeometry y="112" width="180" height="24" as="geometry" />
        </mxCell>
        <mxCell id="YjcfGOqxXFkQnm6U6_Sq-28" value="+ getRoomNumber(): int" style="text;strokeColor=none;fillColor=none;align=left;verticalAlign=top;spacingLeft=4;spacingRight=4;overflow=hidden;rotatable=0;points=[[0,0.5],[1,0.5]];portConstraint=eastwest;whiteSpace=wrap;html=1;" parent="YjcfGOqxXFkQnm6U6_Sq-1" vertex="1">
          <mxGeometry y="136" width="180" height="26" as="geometry" />
        </mxCell>
        <mxCell id="enaOvLACo1BJ830dcgLM-46" value="+ setRoomNumber(number : int) : void" style="text;strokeColor=none;fillColor=none;align=left;verticalAlign=top;spacingLeft=4;spacingRight=4;overflow=hidden;rotatable=0;points=[[0,0.5],[1,0.5]];portConstraint=eastwest;whiteSpace=wrap;html=1;" parent="YjcfGOqxXFkQnm6U6_Sq-1" vertex="1">
          <mxGeometry y="162" width="180" height="38" as="geometry" />
        </mxCell>
        <mxCell id="YjcfGOqxXFkQnm6U6_Sq-29" value="+ getBasePrice(): double" style="text;strokeColor=none;fillColor=none;align=left;verticalAlign=top;spacingLeft=4;spacingRight=4;overflow=hidden;rotatable=0;points=[[0,0.5],[1,0.5]];portConstraint=eastwest;whiteSpace=wrap;html=1;" parent="YjcfGOqxXFkQnm6U6_Sq-1" vertex="1">
          <mxGeometry y="200" width="180" height="26" as="geometry" />
        </mxCell>
        <mxCell id="fT-wLqckhPg0DEHDg7Vk-12" value="+ setBasePrice(newPrice: double) : boolean" style="text;strokeColor=none;fillColor=none;align=left;verticalAlign=top;spacingLeft=4;spacingRight=4;overflow=hidden;rotatable=0;points=[[0,0.5],[1,0.5]];portConstraint=eastwest;whiteSpace=wrap;html=1;" parent="YjcfGOqxXFkQnm6U6_Sq-1" vertex="1">
          <mxGeometry y="226" width="180" height="42" as="geometry" />
        </mxCell>
        <mxCell id="enaOvLACo1BJ830dcgLM-55" value="+ getAvailability() : boolean" style="text;strokeColor=none;fillColor=none;align=left;verticalAlign=top;spacingLeft=4;spacingRight=4;overflow=hidden;rotatable=0;points=[[0,0.5],[1,0.5]];portConstraint=eastwest;whiteSpace=wrap;html=1;" parent="YjcfGOqxXFkQnm6U6_Sq-1" vertex="1">
          <mxGeometry y="268" width="180" height="26" as="geometry" />
        </mxCell>
        <mxCell id="enaOvLACo1BJ830dcgLM-56" value="+ setAvailability(status : boolean) : void" style="text;strokeColor=none;fillColor=none;align=left;verticalAlign=top;spacingLeft=4;spacingRight=4;overflow=hidden;rotatable=0;points=[[0,0.5],[1,0.5]];portConstraint=eastwest;whiteSpace=wrap;html=1;" parent="YjcfGOqxXFkQnm6U6_Sq-1" vertex="1">
          <mxGeometry y="294" width="180" height="46" as="geometry" />
        </mxCell>
        <mxCell id="xqPwADUR2X_ACAqCUkij-6" value="+ setBasePrice(newPrice : double): void" style="text;strokeColor=none;fillColor=none;align=left;verticalAlign=top;spacingLeft=4;spacingRight=4;overflow=hidden;rotatable=0;points=[[0,0.5],[1,0.5]];portConstraint=eastwest;whiteSpace=wrap;html=1;" parent="YjcfGOqxXFkQnm6U6_Sq-1" vertex="1">
          <mxGeometry y="340" width="180" height="40" as="geometry" />
        </mxCell>
        <mxCell id="xqPwADUR2X_ACAqCUkij-5" value="+ getRoomInfo(): void" style="text;strokeColor=none;fillColor=none;align=left;verticalAlign=top;spacingLeft=4;spacingRight=4;overflow=hidden;rotatable=0;points=[[0,0.5],[1,0.5]];portConstraint=eastwest;whiteSpace=wrap;html=1;" parent="YjcfGOqxXFkQnm6U6_Sq-1" vertex="1">
          <mxGeometry y="380" width="180" height="26" as="geometry" />
        </mxCell>
        <mxCell id="enaOvLACo1BJ830dcgLM-1" value="Reservation" style="swimlane;fontStyle=1;align=center;verticalAlign=top;childLayout=stackLayout;horizontal=1;startSize=26;horizontalStack=0;resizeParent=1;resizeParentMax=0;resizeLast=0;collapsible=1;marginBottom=0;whiteSpace=wrap;html=1;" parent="1" vertex="1">
          <mxGeometry x="335" y="500" width="180" height="424" as="geometry" />
        </mxCell>
        <mxCell id="enaOvLACo1BJ830dcgLM-2" value="- guestName: String" style="text;strokeColor=none;fillColor=none;align=left;verticalAlign=top;spacingLeft=4;spacingRight=4;overflow=hidden;rotatable=0;points=[[0,0.5],[1,0.5]];portConstraint=eastwest;whiteSpace=wrap;html=1;" parent="enaOvLACo1BJ830dcgLM-1" vertex="1">
          <mxGeometry y="26" width="180" height="26" as="geometry" />
        </mxCell>
        <mxCell id="enaOvLACo1BJ830dcgLM-6" value="- checkInDate: Calendar" style="text;strokeColor=none;fillColor=none;align=left;verticalAlign=top;spacingLeft=4;spacingRight=4;overflow=hidden;rotatable=0;points=[[0,0.5],[1,0.5]];portConstraint=eastwest;whiteSpace=wrap;html=1;" parent="enaOvLACo1BJ830dcgLM-1" vertex="1">
          <mxGeometry y="52" width="180" height="26" as="geometry" />
        </mxCell>
        <mxCell id="enaOvLACo1BJ830dcgLM-7" value="- checkOutDate: Calendar" style="text;strokeColor=none;fillColor=none;align=left;verticalAlign=top;spacingLeft=4;spacingRight=4;overflow=hidden;rotatable=0;points=[[0,0.5],[1,0.5]];portConstraint=eastwest;whiteSpace=wrap;html=1;" parent="enaOvLACo1BJ830dcgLM-1" vertex="1">
          <mxGeometry y="78" width="180" height="26" as="geometry" />
        </mxCell>
        <mxCell id="kVpQTIHCHsoOi_atrk0u-2" value="- chosenRoom : Room" style="text;strokeColor=none;fillColor=none;align=left;verticalAlign=top;spacingLeft=4;spacingRight=4;overflow=hidden;rotatable=0;points=[[0,0.5],[1,0.5]];portConstraint=eastwest;whiteSpace=wrap;html=1;" parent="enaOvLACo1BJ830dcgLM-1" vertex="1">
          <mxGeometry y="104" width="180" height="26" as="geometry" />
        </mxCell>
        <mxCell id="enaOvLACo1BJ830dcgLM-3" value="" style="line;strokeWidth=1;fillColor=none;align=left;verticalAlign=middle;spacingTop=-1;spacingLeft=3;spacingRight=3;rotatable=0;labelPosition=right;points=[];portConstraint=eastwest;strokeColor=inherit;" parent="enaOvLACo1BJ830dcgLM-1" vertex="1">
          <mxGeometry y="130" width="180" height="8" as="geometry" />
        </mxCell>
        <mxCell id="enaOvLACo1BJ830dcgLM-23" value="+ Reservation(guestName : String, in_date : int, in_month : int, in_year : int, out_date : int, out_month : int, out_year : int, chosenRoom : Room)" style="text;strokeColor=none;fillColor=none;align=left;verticalAlign=top;spacingLeft=4;spacingRight=4;overflow=hidden;rotatable=0;points=[[0,0.5],[1,0.5]];portConstraint=eastwest;whiteSpace=wrap;html=1;" parent="enaOvLACo1BJ830dcgLM-1" vertex="1">
          <mxGeometry y="138" width="180" height="82" as="geometry" />
        </mxCell>
        <mxCell id="enaOvLACo1BJ830dcgLM-50" value="+ getGuestName() : String" style="text;strokeColor=none;fillColor=none;align=left;verticalAlign=top;spacingLeft=4;spacingRight=4;overflow=hidden;rotatable=0;points=[[0,0.5],[1,0.5]];portConstraint=eastwest;whiteSpace=wrap;html=1;" parent="enaOvLACo1BJ830dcgLM-1" vertex="1">
          <mxGeometry y="220" width="180" height="26" as="geometry" />
        </mxCell>
        <mxCell id="enaOvLACo1BJ830dcgLM-51" value="+ setGuestName(name : String) : void" style="text;strokeColor=none;fillColor=none;align=left;verticalAlign=top;spacingLeft=4;spacingRight=4;overflow=hidden;rotatable=0;points=[[0,0.5],[1,0.5]];portConstraint=eastwest;whiteSpace=wrap;html=1;" parent="enaOvLACo1BJ830dcgLM-1" vertex="1">
          <mxGeometry y="246" width="180" height="34" as="geometry" />
        </mxCell>
        <mxCell id="enaOvLACo1BJ830dcgLM-4" value="+ getTotalPrice(chosenRoom: Room) : double" style="text;strokeColor=none;fillColor=none;align=left;verticalAlign=top;spacingLeft=4;spacingRight=4;overflow=hidden;rotatable=0;points=[[0,0.5],[1,0.5]];portConstraint=eastwest;whiteSpace=wrap;html=1;" parent="enaOvLACo1BJ830dcgLM-1" vertex="1">
          <mxGeometry y="280" width="180" height="40" as="geometry" />
        </mxCell>
        <mxCell id="enaOvLACo1BJ830dcgLM-45" value="+ getcheckInDate() : Calendar" style="text;strokeColor=none;fillColor=none;align=left;verticalAlign=top;spacingLeft=4;spacingRight=4;overflow=hidden;rotatable=0;points=[[0,0.5],[1,0.5]];portConstraint=eastwest;whiteSpace=wrap;html=1;" parent="enaOvLACo1BJ830dcgLM-1" vertex="1">
          <mxGeometry y="320" width="180" height="26" as="geometry" />
        </mxCell>
        <mxCell id="enaOvLACo1BJ830dcgLM-44" value="+ getcheckOutDate() : Calendar" style="text;strokeColor=none;fillColor=none;align=left;verticalAlign=top;spacingLeft=4;spacingRight=4;overflow=hidden;rotatable=0;points=[[0,0.5],[1,0.5]];portConstraint=eastwest;whiteSpace=wrap;html=1;" parent="enaOvLACo1BJ830dcgLM-1" vertex="1">
          <mxGeometry y="346" width="180" height="26" as="geometry" />
        </mxCell>
        <mxCell id="kVpQTIHCHsoOi_atrk0u-3" value="+ getChosenRoom() : Room" style="text;strokeColor=none;fillColor=none;align=left;verticalAlign=top;spacingLeft=4;spacingRight=4;overflow=hidden;rotatable=0;points=[[0,0.5],[1,0.5]];portConstraint=eastwest;whiteSpace=wrap;html=1;" parent="enaOvLACo1BJ830dcgLM-1" vertex="1">
          <mxGeometry y="372" width="180" height="26" as="geometry" />
        </mxCell>
        <mxCell id="fT-wLqckhPg0DEHDg7Vk-1" value="+ breakdown() : void" style="text;strokeColor=none;fillColor=none;align=left;verticalAlign=top;spacingLeft=4;spacingRight=4;overflow=hidden;rotatable=0;points=[[0,0.5],[1,0.5]];portConstraint=eastwest;whiteSpace=wrap;html=1;" parent="enaOvLACo1BJ830dcgLM-1" vertex="1">
          <mxGeometry y="398" width="180" height="26" as="geometry" />
        </mxCell>
        <mxCell id="enaOvLACo1BJ830dcgLM-8" value="Hotel" style="swimlane;fontStyle=1;align=center;verticalAlign=top;childLayout=stackLayout;horizontal=1;startSize=26;horizontalStack=0;resizeParent=1;resizeParentMax=0;resizeLast=0;collapsible=1;marginBottom=0;whiteSpace=wrap;html=1;" parent="1" vertex="1">
          <mxGeometry x="10" y="380" width="195" height="500" as="geometry" />
        </mxCell>
        <mxCell id="enaOvLACo1BJ830dcgLM-9" value="- hotelName : String" style="text;strokeColor=none;fillColor=none;align=left;verticalAlign=top;spacingLeft=4;spacingRight=4;overflow=hidden;rotatable=0;points=[[0,0.5],[1,0.5]];portConstraint=eastwest;whiteSpace=wrap;html=1;" parent="enaOvLACo1BJ830dcgLM-8" vertex="1">
          <mxGeometry y="26" width="195" height="26" as="geometry" />
        </mxCell>
        <mxCell id="enaOvLACo1BJ830dcgLM-12" value="- numberOfRooms : int" style="text;strokeColor=none;fillColor=none;align=left;verticalAlign=top;spacingLeft=4;spacingRight=4;overflow=hidden;rotatable=0;points=[[0,0.5],[1,0.5]];portConstraint=eastwest;whiteSpace=wrap;html=1;" parent="enaOvLACo1BJ830dcgLM-8" vertex="1">
          <mxGeometry y="52" width="195" height="28" as="geometry" />
        </mxCell>
        <mxCell id="enaOvLACo1BJ830dcgLM-13" value="- roomList : Room[]" style="text;strokeColor=none;fillColor=none;align=left;verticalAlign=top;spacingLeft=4;spacingRight=4;overflow=hidden;rotatable=0;points=[[0,0.5],[1,0.5]];portConstraint=eastwest;whiteSpace=wrap;html=1;" parent="enaOvLACo1BJ830dcgLM-8" vertex="1">
          <mxGeometry y="80" width="195" height="30" as="geometry" />
        </mxCell>
        <mxCell id="enaOvLACo1BJ830dcgLM-15" value="- reservationList : Reservation[]" style="text;strokeColor=none;fillColor=none;align=left;verticalAlign=top;spacingLeft=4;spacingRight=4;overflow=hidden;rotatable=0;points=[[0,0.5],[1,0.5]];portConstraint=eastwest;whiteSpace=wrap;html=1;" parent="enaOvLACo1BJ830dcgLM-8" vertex="1">
          <mxGeometry y="110" width="195" height="40" as="geometry" />
        </mxCell>
        <mxCell id="enaOvLACo1BJ830dcgLM-10" value="" style="line;strokeWidth=1;fillColor=none;align=left;verticalAlign=middle;spacingTop=-1;spacingLeft=3;spacingRight=3;rotatable=0;labelPosition=right;points=[];portConstraint=eastwest;strokeColor=inherit;" parent="enaOvLACo1BJ830dcgLM-8" vertex="1">
          <mxGeometry y="150" width="195" height="8" as="geometry" />
        </mxCell>
        <mxCell id="enaOvLACo1BJ830dcgLM-24" value="+ Hotel(numberofRooms : int, hotelName : String)" style="text;strokeColor=none;fillColor=none;align=left;verticalAlign=top;spacingLeft=4;spacingRight=4;overflow=hidden;rotatable=0;points=[[0,0.5],[1,0.5]];portConstraint=eastwest;whiteSpace=wrap;html=1;" parent="enaOvLACo1BJ830dcgLM-8" vertex="1">
          <mxGeometry y="158" width="195" height="40" as="geometry" />
        </mxCell>
        <mxCell id="enaOvLACo1BJ830dcgLM-33" value="+ Hotel(hotelName : String)" style="text;strokeColor=none;fillColor=none;align=left;verticalAlign=top;spacingLeft=4;spacingRight=4;overflow=hidden;rotatable=0;points=[[0,0.5],[1,0.5]];portConstraint=eastwest;whiteSpace=wrap;html=1;" parent="enaOvLACo1BJ830dcgLM-8" vertex="1">
          <mxGeometry y="198" width="195" height="26" as="geometry" />
        </mxCell>
        <mxCell id="enaOvLACo1BJ830dcgLM-32" value="+ getMonthlyEarnings() : double" style="text;strokeColor=none;fillColor=none;align=left;verticalAlign=top;spacingLeft=4;spacingRight=4;overflow=hidden;rotatable=0;points=[[0,0.5],[1,0.5]];portConstraint=eastwest;whiteSpace=wrap;html=1;" parent="enaOvLACo1BJ830dcgLM-8" vertex="1">
          <mxGeometry y="224" width="195" height="34" as="geometry" />
        </mxCell>
        <mxCell id="xqPwADUR2X_ACAqCUkij-2" value="+ getRoomList(): Room[]" style="text;strokeColor=none;fillColor=none;align=left;verticalAlign=top;spacingLeft=4;spacingRight=4;overflow=hidden;rotatable=0;points=[[0,0.5],[1,0.5]];portConstraint=eastwest;whiteSpace=wrap;html=1;" parent="enaOvLACo1BJ830dcgLM-8" vertex="1">
          <mxGeometry y="258" width="195" height="26" as="geometry" />
        </mxCell>
        <mxCell id="xqPwADUR2X_ACAqCUkij-1" value="+ getReservationList(): Reservation[]" style="text;strokeColor=none;fillColor=none;align=left;verticalAlign=top;spacingLeft=4;spacingRight=4;overflow=hidden;rotatable=0;points=[[0,0.5],[1,0.5]];portConstraint=eastwest;whiteSpace=wrap;html=1;" parent="enaOvLACo1BJ830dcgLM-8" vertex="1">
          <mxGeometry y="284" width="195" height="42" as="geometry" />
        </mxCell>
        <mxCell id="gZ7r5iAC6TD7ukTZguTt-4" value="+ getNumberOfRooms(): int" style="text;strokeColor=none;fillColor=none;align=left;verticalAlign=top;spacingLeft=4;spacingRight=4;overflow=hidden;rotatable=0;points=[[0,0.5],[1,0.5]];portConstraint=eastwest;whiteSpace=wrap;html=1;" vertex="1" parent="enaOvLACo1BJ830dcgLM-8">
          <mxGeometry y="326" width="195" height="26" as="geometry" />
        </mxCell>
        <mxCell id="xqPwADUR2X_ACAqCUkij-4" value="+ setNumberOfRooms(roomCount : int): void" style="text;strokeColor=none;fillColor=none;align=left;verticalAlign=top;spacingLeft=4;spacingRight=4;overflow=hidden;rotatable=0;points=[[0,0.5],[1,0.5]];portConstraint=eastwest;whiteSpace=wrap;html=1;" parent="enaOvLACo1BJ830dcgLM-8" vertex="1">
          <mxGeometry y="352" width="195" height="44" as="geometry" />
        </mxCell>
        <mxCell id="xqPwADUR2X_ACAqCUkij-3" value="+ setNewPrice(newPrice : double): boolean" style="text;strokeColor=none;fillColor=none;align=left;verticalAlign=top;spacingLeft=4;spacingRight=4;overflow=hidden;rotatable=0;points=[[0,0.5],[1,0.5]];portConstraint=eastwest;whiteSpace=wrap;html=1;" parent="enaOvLACo1BJ830dcgLM-8" vertex="1">
          <mxGeometry y="396" width="195" height="40" as="geometry" />
        </mxCell>
        <mxCell id="6VVVKH3dxH4yMX3Iy2eF-1" value="+ getHotelName(): String" style="text;strokeColor=none;fillColor=none;align=left;verticalAlign=top;spacingLeft=4;spacingRight=4;overflow=hidden;rotatable=0;points=[[0,0.5],[1,0.5]];portConstraint=eastwest;whiteSpace=wrap;html=1;" parent="enaOvLACo1BJ830dcgLM-8" vertex="1">
          <mxGeometry y="436" width="195" height="26" as="geometry" />
        </mxCell>
        <mxCell id="enaOvLACo1BJ830dcgLM-25" value="+ setHotelName(newName : String) : boolean" style="text;strokeColor=none;fillColor=none;align=left;verticalAlign=top;spacingLeft=4;spacingRight=4;overflow=hidden;rotatable=0;points=[[0,0.5],[1,0.5]];portConstraint=eastwest;whiteSpace=wrap;html=1;" parent="enaOvLACo1BJ830dcgLM-8" vertex="1">
          <mxGeometry y="462" width="195" height="38" as="geometry" />
        </mxCell>
        <mxCell id="enaOvLACo1BJ830dcgLM-37" value="HotelReservationSystem" style="swimlane;fontStyle=1;align=center;verticalAlign=top;childLayout=stackLayout;horizontal=1;startSize=26;horizontalStack=0;resizeParent=1;resizeParentMax=0;resizeLast=0;collapsible=1;marginBottom=0;whiteSpace=wrap;html=1;" parent="1" vertex="1">
          <mxGeometry x="345" y="1" width="195" height="364" as="geometry">
            <mxRectangle x="50" y="247" width="170" height="30" as="alternateBounds" />
          </mxGeometry>
        </mxCell>
        <mxCell id="enaOvLACo1BJ830dcgLM-38" value="- hotelList : Hotel []" style="text;strokeColor=none;fillColor=none;align=left;verticalAlign=top;spacingLeft=4;spacingRight=4;overflow=hidden;rotatable=0;points=[[0,0.5],[1,0.5]];portConstraint=eastwest;whiteSpace=wrap;html=1;" parent="enaOvLACo1BJ830dcgLM-37" vertex="1">
          <mxGeometry y="26" width="195" height="34" as="geometry" />
        </mxCell>
        <mxCell id="enaOvLACo1BJ830dcgLM-39" value="" style="line;strokeWidth=1;fillColor=none;align=left;verticalAlign=middle;spacingTop=-1;spacingLeft=3;spacingRight=3;rotatable=0;labelPosition=right;points=[];portConstraint=eastwest;strokeColor=inherit;" parent="enaOvLACo1BJ830dcgLM-37" vertex="1">
          <mxGeometry y="60" width="195" height="8" as="geometry" />
        </mxCell>
        <mxCell id="enaOvLACo1BJ830dcgLM-40" value="+ addHotel(roomCount : int, hotelName : String): boolean" style="text;strokeColor=none;fillColor=none;align=left;verticalAlign=top;spacingLeft=4;spacingRight=4;overflow=hidden;rotatable=0;points=[[0,0.5],[1,0.5]];portConstraint=eastwest;whiteSpace=wrap;html=1;" parent="enaOvLACo1BJ830dcgLM-37" vertex="1">
          <mxGeometry y="68" width="195" height="52" as="geometry" />
        </mxCell>
        <mxCell id="xqPwADUR2X_ACAqCUkij-7" value="+ addHotel(hotelName : String): attribute" style="text;strokeColor=none;fillColor=none;align=left;verticalAlign=top;spacingLeft=4;spacingRight=4;overflow=hidden;rotatable=0;points=[[0,0.5],[1,0.5]];portConstraint=eastwest;whiteSpace=wrap;html=1;" parent="enaOvLACo1BJ830dcgLM-37" vertex="1">
          <mxGeometry y="120" width="195" height="40" as="geometry" />
        </mxCell>
        <mxCell id="gZ7r5iAC6TD7ukTZguTt-1" value="+ getHotelList(): Hotel[]" style="text;strokeColor=none;fillColor=none;align=left;verticalAlign=top;spacingLeft=4;spacingRight=4;overflow=hidden;rotatable=0;points=[[0,0.5],[1,0.5]];portConstraint=eastwest;whiteSpace=wrap;html=1;" vertex="1" parent="enaOvLACo1BJ830dcgLM-37">
          <mxGeometry y="160" width="195" height="26" as="geometry" />
        </mxCell>
        <mxCell id="gZ7r5iAC6TD7ukTZguTt-2" value="+ getHotelNames(): void" style="text;strokeColor=none;fillColor=none;align=left;verticalAlign=top;spacingLeft=4;spacingRight=4;overflow=hidden;rotatable=0;points=[[0,0.5],[1,0.5]];portConstraint=eastwest;whiteSpace=wrap;html=1;" vertex="1" parent="enaOvLACo1BJ830dcgLM-37">
          <mxGeometry y="186" width="195" height="26" as="geometry" />
        </mxCell>
        <mxCell id="enaOvLACo1BJ830dcgLM-43" value="+ addReservation(index : int, guestName : String, in_date : int, in_month : int, in_year : int, out_date : int, out_month : int, out_year : int&amp;nbsp;chosenRoom : Room) : void&amp;nbsp;" style="text;strokeColor=none;fillColor=none;align=left;verticalAlign=top;spacingLeft=4;spacingRight=4;overflow=hidden;rotatable=0;points=[[0,0.5],[1,0.5]];portConstraint=eastwest;whiteSpace=wrap;html=1;" parent="enaOvLACo1BJ830dcgLM-37" vertex="1">
          <mxGeometry y="212" width="195" height="100" as="geometry" />
        </mxCell>
        <mxCell id="6VVVKH3dxH4yMX3Iy2eF-3" value="+ viewHotel(index : int): void" style="text;strokeColor=none;fillColor=none;align=left;verticalAlign=top;spacingLeft=4;spacingRight=4;overflow=hidden;rotatable=0;points=[[0,0.5],[1,0.5]];portConstraint=eastwest;whiteSpace=wrap;html=1;" parent="enaOvLACo1BJ830dcgLM-37" vertex="1">
          <mxGeometry y="312" width="195" height="26" as="geometry" />
        </mxCell>
        <mxCell id="6VVVKH3dxH4yMX3Iy2eF-2" value="+ manageHotel(index : int): void" style="text;strokeColor=none;fillColor=none;align=left;verticalAlign=top;spacingLeft=4;spacingRight=4;overflow=hidden;rotatable=0;points=[[0,0.5],[1,0.5]];portConstraint=eastwest;whiteSpace=wrap;html=1;" parent="enaOvLACo1BJ830dcgLM-37" vertex="1">
          <mxGeometry y="338" width="195" height="26" as="geometry" />
        </mxCell>
        <mxCell id="reC9IUW4d23R3Ghy_KCw-2" value="" style="endArrow=diamond;endFill=0;endSize=24;html=1;rounded=0;exitX=-0.022;exitY=0.761;exitDx=0;exitDy=0;exitPerimeter=0;" parent="1" source="enaOvLACo1BJ830dcgLM-56" edge="1">
          <mxGeometry width="160" relative="1" as="geometry">
            <mxPoint x="480" y="350" as="sourcePoint" />
            <mxPoint x="520" y="709" as="targetPoint" />
          </mxGeometry>
        </mxCell>
        <mxCell id="reC9IUW4d23R3Ghy_KCw-6" value="" style="endArrow=diamond;endFill=0;endSize=24;html=1;rounded=0;exitX=0.5;exitY=0;exitDx=0;exitDy=0;entryX=-0.003;entryY=0.946;entryDx=0;entryDy=0;entryPerimeter=0;" parent="1" source="enaOvLACo1BJ830dcgLM-8" target="gZ7r5iAC6TD7ukTZguTt-2" edge="1">
          <mxGeometry width="160" relative="1" as="geometry">
            <mxPoint x="120" y="208" as="sourcePoint" />
            <mxPoint x="345" y="181" as="targetPoint" />
            <Array as="points">
              <mxPoint x="110" y="210" />
            </Array>
          </mxGeometry>
        </mxCell>
        <mxCell id="k6xVh6LapcGTRqiBA9JY-1" value="" style="endArrow=diamond;endFill=1;endSize=24;html=1;rounded=0;exitX=0;exitY=0.5;exitDx=0;exitDy=0;" parent="1" source="enaOvLACo1BJ830dcgLM-54" edge="1">
          <mxGeometry width="160" relative="1" as="geometry">
            <mxPoint x="410" y="310" as="sourcePoint" />
            <mxPoint x="210" y="470" as="targetPoint" />
          </mxGeometry>
        </mxCell>
        <mxCell id="k6xVh6LapcGTRqiBA9JY-5" value="" style="endArrow=diamond;endFill=1;endSize=24;html=1;rounded=0;" parent="1" edge="1">
          <mxGeometry width="160" relative="1" as="geometry">
            <mxPoint x="335" y="650" as="sourcePoint" />
            <mxPoint x="210" y="650" as="targetPoint" />
          </mxGeometry>
        </mxCell>
        <mxCell id="k6xVh6LapcGTRqiBA9JY-6" value="&lt;font style=&quot;font-size: 17px;&quot;&gt;1...50&lt;/font&gt;" style="text;html=1;align=center;verticalAlign=middle;resizable=0;points=[];autosize=1;strokeColor=none;fillColor=none;" parent="1" vertex="1">
          <mxGeometry x="570" y="440" width="70" height="30" as="geometry" />
        </mxCell>
        <mxCell id="k6xVh6LapcGTRqiBA9JY-7" value="&lt;font style=&quot;font-size: 17px;&quot;&gt;*&lt;/font&gt;" style="text;html=1;align=center;verticalAlign=middle;resizable=0;points=[];autosize=1;strokeColor=none;fillColor=none;" parent="1" vertex="1">
          <mxGeometry x="305" y="620" width="30" height="30" as="geometry" />
        </mxCell>
        <mxCell id="k6xVh6LapcGTRqiBA9JY-9" value="&lt;font style=&quot;font-size: 17px;&quot;&gt;*&lt;/font&gt;" style="text;html=1;align=center;verticalAlign=middle;resizable=0;points=[];autosize=1;strokeColor=none;fillColor=none;" parent="1" vertex="1">
          <mxGeometry x="80" y="318" width="30" height="30" as="geometry" />
        </mxCell>
        <mxCell id="SQJ-kHOHBMKAbNSt3r6T-1" value="&lt;font style=&quot;font-size: 17px;&quot;&gt;*&lt;/font&gt;" style="text;html=1;align=center;verticalAlign=middle;resizable=0;points=[];autosize=1;strokeColor=none;fillColor=none;" parent="1" vertex="1">
          <mxGeometry x="515" y="660" width="30" height="30" as="geometry" />
        </mxCell>
      </root>
    </mxGraphModel>
  </diagram>
</mxfile>
